<svg enable-background="new 0 0 512 512" viewBox="0 0 512 512" xmlns="http://www.w3.org/2000/svg"><path d="m179.2 204.8c0-47.13-38.204-85.333-85.333-85.333s-85.334 38.203-85.334 85.333c0 31.565 17.186 59.059 42.667 73.822v-22.494c0-9.498 8.021-17.195 17.911-17.195h49.51c9.89 0 17.911 7.697 17.911 17.195v22.477c25.49-14.737 42.668-42.24 42.668-73.805z" fill="#366db6"/><circle cx="477.867" cy="136.533" fill="#dd352e" r="25.6"/><circle cx="34.133" cy="418.133" fill="#dd352e" r="25.6"/><circle cx="384" cy="477.867" fill="#dd352e" r="25.6"/><circle cx="256" cy="264.533" fill="#dd352e" r="25.6"/><circle cx="93.867" cy="179.2" fill="#fff" r="25.6"/><path d="m118.622 238.933h-49.51c-9.89 0-17.911 7.697-17.911 17.195v22.494c12.561 7.279 27.102 11.511 42.667 11.511s30.106-4.233 42.667-11.511v-22.494c-.002-9.498-8.023-17.195-17.913-17.195z" fill="#fff"/><path d="m384 93.867c0-47.13-38.204-85.333-85.333-85.333s-85.333 38.204-85.333 85.333c0 31.565 17.186 59.059 42.667 73.822v-22.494c0-9.498 8.021-17.195 17.911-17.195h49.51c9.89 0 17.911 7.697 17.911 17.195v22.477c25.489-14.738 42.667-42.241 42.667-73.805z" fill="#366db6"/><circle cx="298.667" cy="68.267" fill="#fff" r="25.6"/><path d="m323.422 128h-49.51c-9.89 0-17.911 7.697-17.911 17.195v22.494c12.561 7.279 27.102 11.511 42.667 11.511s30.106-4.233 42.667-11.511v-22.494c-.002-9.498-8.023-17.195-17.913-17.195z" fill="#fff"/><path d="m494.933 315.733c0-47.13-38.204-85.333-85.333-85.333s-85.333 38.204-85.333 85.333c0 31.565 17.186 59.059 42.667 73.822v-22.494c0-9.498 8.021-17.195 17.911-17.195h49.51c9.89 0 17.911 7.697 17.911 17.195v22.477c25.49-14.737 42.667-42.24 42.667-73.805z" fill="#366db6"/><circle cx="409.6" cy="290.133" fill="#fff" r="25.6"/><path d="m434.355 349.867h-49.51c-9.89 0-17.911 7.697-17.911 17.195v22.494c12.561 7.279 27.102 11.511 42.667 11.511s30.106-4.233 42.667-11.511v-22.494c-.001-9.498-8.023-17.195-17.913-17.195z" fill="#fff"/><path d="m290.133 418.133c0-47.13-38.204-85.333-85.333-85.333s-85.333 38.204-85.333 85.333c0 31.565 17.186 59.059 42.667 73.822v-22.494c0-9.498 8.021-17.195 17.911-17.195h49.51c9.89 0 17.911 7.697 17.911 17.195v22.477c25.49-14.737 42.667-42.24 42.667-73.805z" fill="#366db6"/><circle cx="204.8" cy="392.533" fill="#fff" r="25.6"/><path d="m229.555 452.267h-49.51c-9.89 0-17.911 7.697-17.911 17.195v22.494c12.561 7.279 27.102 11.511 42.667 11.511s30.106-4.233 42.667-11.511v-22.494c-.001-9.498-8.023-17.195-17.913-17.195z" fill="#fff"/><circle cx="93.867" cy="34.133" fill="#dd352e" r="25.6"/><g fill="#4d007e"><path d="m477.867 170.667c-18.825 0-34.133-15.309-34.133-34.133s15.309-34.133 34.133-34.133c18.825 0 34.133 15.309 34.133 34.133s-15.309 34.133-34.133 34.133zm0-51.2c-9.412 0-17.067 7.654-17.067 17.067 0 9.412 7.654 17.067 17.067 17.067 9.412 0 17.067-7.654 17.067-17.067s-7.655-17.067-17.067-17.067z"/><path d="m34.133 452.267c-18.824 0-34.133-15.309-34.133-34.134 0-18.824 15.309-34.133 34.133-34.133s34.133 15.309 34.133 34.133c.001 18.825-15.308 34.134-34.133 34.134zm0-51.2c-9.412 0-17.067 7.654-17.067 17.067 0 9.412 7.654 17.067 17.067 17.067s17.067-7.655 17.067-17.068c0-9.412-7.654-17.066-17.067-17.066z"/><path d="m457.609 129.408c-1.246 0-2.509-.273-3.703-.853l-73.617-35.541c-4.241-2.048-6.025-7.151-3.977-11.392s7.142-6.033 11.392-3.977l73.617 35.541c4.241 2.048 6.025 7.151 3.977 11.392-1.469 3.055-4.515 4.83-7.689 4.83z"/><path d="m384 512c-18.825 0-34.133-15.309-34.133-34.133 0-18.825 15.309-34.133 34.133-34.133 18.825 0 34.133 15.309 34.133 34.133s-15.308 34.133-34.133 34.133zm0-51.2c-9.412 0-17.067 7.654-17.067 17.067 0 9.412 7.654 17.067 17.067 17.067 9.412 0 17.067-7.654 17.067-17.067s-7.655-17.067-17.067-17.067z"/><path d="m363.742 470.741c-1.246 0-2.509-.273-3.703-.853l-73.617-35.541c-4.241-2.048-6.025-7.151-3.977-11.392 2.048-4.25 7.142-6.033 11.392-3.977l73.617 35.541c4.241 2.048 6.025 7.151 3.977 11.392-1.468 3.055-4.515 4.83-7.689 4.83z"/><path d="m256 298.667c-18.825 0-34.133-15.309-34.133-34.133 0-18.825 15.309-34.133 34.133-34.133 18.825 0 34.133 15.309 34.133 34.133s-15.308 34.133-34.133 34.133zm0-51.2c-9.412 0-17.067 7.654-17.067 17.067 0 9.412 7.654 17.067 17.067 17.067 9.412 0 17.067-7.654 17.067-17.067s-7.655-17.067-17.067-17.067z"/><path d="m235.742 257.408c-1.835 0-3.678-.589-5.239-1.801l-56.55-44.075c-3.721-2.901-4.378-8.26-1.485-11.981 2.901-3.721 8.26-4.361 11.981-1.485l56.55 44.075c3.721 2.901 4.378 8.26 1.485 11.981-1.69 2.16-4.199 3.286-6.742 3.286z"/><path d="m409.6 409.6c-51.755 0-93.867-42.112-93.867-93.867s42.112-93.867 93.867-93.867 93.867 42.112 93.867 93.867-42.112 93.867-93.867 93.867zm0-170.667c-42.351 0-76.8 34.449-76.8 76.8s34.449 76.8 76.8 76.8 76.8-34.449 76.8-76.8-34.449-76.8-76.8-76.8z"/><path d="m409.6 324.267c-18.825 0-34.133-15.309-34.133-34.133 0-18.825 15.309-34.133 34.133-34.133 18.825 0 34.133 15.309 34.133 34.133s-15.308 34.133-34.133 34.133zm0-51.2c-9.412 0-17.067 7.654-17.067 17.067 0 9.412 7.654 17.067 17.067 17.067 9.412 0 17.067-7.654 17.067-17.067s-7.655-17.067-17.067-17.067z"/><path d="m409.6 409.6c-16.41 0-32.64-4.378-46.942-12.655-2.637-1.527-4.258-4.343-4.258-7.39v-22.494c0-14.182 11.861-25.728 26.445-25.728h49.51c14.583 0 26.445 11.546 26.445 25.737v22.494c0 3.038-1.621 5.862-4.258 7.381-14.302 8.277-30.532 12.655-46.942 12.655zm-34.133-25.131c21.239 10.581 47.027 10.581 68.267 0v-17.399c0-4.779-4.207-8.67-9.378-8.67h-49.51c-5.171 0-9.378 3.891-9.378 8.67v17.399zm76.8 5.086h.085z"/><path d="m204.8 512c-51.755 0-93.867-42.112-93.867-93.867s42.112-93.867 93.867-93.867 93.867 42.112 93.867 93.867-42.112 93.867-93.867 93.867zm0-170.667c-42.351 0-76.8 34.449-76.8 76.8s34.449 76.8 76.8 76.8 76.8-34.449 76.8-76.8-34.449-76.8-76.8-76.8z"/><path d="m204.8 426.667c-18.825 0-34.133-15.309-34.133-34.133s15.308-34.134 34.133-34.134 34.133 15.309 34.133 34.133-15.308 34.134-34.133 34.134zm0-51.2c-9.412 0-17.067 7.654-17.067 17.067s7.655 17.066 17.067 17.066 17.067-7.654 17.067-17.067-7.655-17.066-17.067-17.066z"/><path d="m204.8 512c-16.41 0-32.64-4.378-46.942-12.655-2.637-1.527-4.258-4.343-4.258-7.39v-22.494c0-14.182 11.861-25.728 26.445-25.728h49.51c14.583 0 26.445 11.546 26.445 25.737v22.494c0 3.038-1.621 5.862-4.258 7.381-14.302 8.277-30.532 12.655-46.942 12.655zm-34.133-25.131c21.239 10.581 47.027 10.581 68.267 0v-17.399c0-4.779-4.207-8.67-9.378-8.67h-49.51c-5.171 0-9.378 3.891-9.378 8.67v17.399zm76.8 5.086h.085z"/><path d="m93.867 298.667c-51.755 0-93.867-42.112-93.867-93.867s42.112-93.867 93.867-93.867 93.867 42.112 93.867 93.867-42.113 93.867-93.867 93.867zm0-170.667c-42.351 0-76.8 34.449-76.8 76.8s34.449 76.8 76.8 76.8 76.8-34.449 76.8-76.8-34.449-76.8-76.8-76.8z"/><path d="m93.867 213.333c-18.825 0-34.133-15.309-34.133-34.133s15.309-34.133 34.133-34.133 34.133 15.308 34.133 34.133-15.309 34.133-34.133 34.133zm0-51.2c-9.412 0-17.067 7.654-17.067 17.067s7.654 17.067 17.067 17.067 17.067-7.654 17.067-17.067-7.655-17.067-17.067-17.067z"/><path d="m93.867 298.667c-16.41 0-32.64-4.378-46.942-12.655-2.637-1.527-4.258-4.343-4.258-7.39v-22.494c0-14.182 11.861-25.728 26.445-25.728h49.51c14.583 0 26.445 11.546 26.445 25.737v22.494c0 3.038-1.621 5.862-4.258 7.381-14.302 8.277-30.533 12.655-46.942 12.655zm-34.134-25.131c21.239 10.581 47.027 10.581 68.267 0v-17.399c0-4.779-4.207-8.67-9.378-8.67h-49.51c-5.171 0-9.378 3.891-9.378 8.67v17.399zm76.8 5.086h.085z"/><path d="m298.667 187.733c-51.755 0-93.867-42.112-93.867-93.867s42.112-93.866 93.867-93.866 93.867 42.112 93.867 93.867-42.113 93.866-93.867 93.866zm0-170.666c-42.351 0-76.8 34.449-76.8 76.8s34.449 76.8 76.8 76.8 76.8-34.449 76.8-76.8-34.449-76.8-76.8-76.8z"/><path d="m298.667 102.4c-18.825 0-34.133-15.309-34.133-34.133s15.309-34.133 34.133-34.133 34.133 15.308 34.133 34.133-15.309 34.133-34.133 34.133zm0-51.2c-9.412 0-17.067 7.654-17.067 17.067s7.654 17.067 17.067 17.067c9.412 0 17.067-7.654 17.067-17.067s-7.655-17.067-17.067-17.067z"/><path d="m298.667 187.733c-16.41 0-32.64-4.378-46.942-12.655-2.637-1.527-4.258-4.343-4.258-7.39v-22.494c0-14.182 11.861-25.728 26.445-25.728h49.51c14.583 0 26.445 11.546 26.445 25.737v22.494c0 3.038-1.621 5.862-4.258 7.381-14.302 8.278-30.533 12.655-46.942 12.655zm-34.134-25.13c21.239 10.581 47.027 10.581 68.267 0v-17.399c0-4.779-4.207-8.67-9.378-8.67h-49.51c-5.171 0-9.378 3.891-9.378 8.67v17.399zm76.8 5.086h.085z"/><path d="m154.206 153.003c-2.406 0-4.796-1.015-6.485-2.987-3.063-3.584-2.645-8.969.939-12.032l59.136-50.603c3.584-3.063 8.969-2.637 12.032.93 3.063 3.584 2.645 8.969-.939 12.032l-59.136 50.603c-1.613 1.383-3.584 2.057-5.547 2.057z"/><path d="m401.075 238.933c-2.594 0-5.154-1.178-6.835-3.413l-51.2-68.267c-2.825-3.763-2.065-9.114 1.707-11.938 3.772-2.816 9.122-2.074 11.947 1.707l51.2 68.267c2.825 3.763 2.065 9.114-1.707 11.938-1.536 1.152-3.337 1.706-5.112 1.706z"/><path d="m283.375 393.344c-2.594 0-5.154-1.178-6.835-3.413-2.825-3.763-2.065-9.114 1.707-11.938l47.667-35.746c3.772-2.825 9.122-2.065 11.947 1.707 2.825 3.763 2.065 9.114-1.707 11.938l-47.667 35.746c-1.537 1.143-3.329 1.706-5.112 1.706z"/><path d="m119.467 426.667h-59.734c-4.71 0-8.533-3.814-8.533-8.533s3.823-8.533 8.533-8.533h59.733c4.71 0 8.533 3.814 8.533 8.533.001 4.718-3.822 8.533-8.532 8.533z"/><path d="m93.867 68.267c-18.825 0-34.133-15.309-34.133-34.133s15.308-34.134 34.133-34.134 34.133 15.309 34.133 34.133-15.309 34.134-34.133 34.134zm0-51.2c-9.412 0-17.067 7.654-17.067 17.067s7.654 17.066 17.067 17.066 17.067-7.654 17.067-17.067-7.655-17.066-17.067-17.066z"/><path d="m93.867 128c-4.71 0-8.533-3.814-8.533-8.533v-59.734c0-4.719 3.823-8.533 8.533-8.533s8.533 3.814 8.533 8.533v59.733c0 4.72-3.823 8.534-8.533 8.534z"/></g></svg>